<svg width="40" height="40" viewBox="0 0 40 40" fill="none" xmlns="http://www.w3.org/2000/svg">
<path fill-rule="evenodd" clip-rule="evenodd" d="M31.908 8.09086C30.6581 6.84091 27.8099 7.45898 24.3734 9.4402C23.3443 5.60907 21.7674 3.15796 19.9997 3.15796C18.232 3.15796 16.6551 5.60891 15.6261 9.43984C12.1897 7.45881 9.34177 6.84084 8.09187 8.09074C6.84185 9.34076 7.46007 12.1891 9.44158 15.626C5.60965 16.655 3.15796 18.2321 3.15796 20.0001C3.15796 21.7677 5.60879 23.3446 9.43956 24.3736C7.4579 27.8106 6.8396 30.6591 8.08966 31.9092C9.33979 33.1593 12.1885 32.5409 15.6257 30.559C16.6548 34.3907 18.2318 36.8422 19.9997 36.8422C21.7676 36.8422 23.3447 34.3905 24.3737 30.5587C27.8111 32.5407 30.66 33.1592 31.9102 31.9091C33.1602 30.659 32.542 27.8106 30.5604 24.3737C34.3913 23.3446 36.8422 21.7678 36.8422 20.0001C36.8422 18.2321 34.3904 16.655 30.5584 15.6259C32.5398 12.1892 33.158 9.34086 31.908 8.09086Z" fill="black"/>
</svg>
