<svg width="50" height="50" viewBox="0 0 50 50" fill="none" xmlns="http://www.w3.org/2000/svg">
<rect width="50" height="50" fill="black"/>
<path d="M50 22.4851H37.7366L49.0787 17.8162L47.1614 13.1474L35.6947 17.866L44.4597 9.1011L40.8989 5.54034L32.134 14.3053L36.8526 2.83865L32.1838 0.921315L27.5149 12.2634V0H22.4851V12.251L17.8162 0.921315L13.1474 2.83865L17.866 14.3053L9.1011 5.54034L5.54034 9.1011L14.3053 17.866L2.83865 13.1474L0.921315 17.8162L12.2634 22.4851H0V27.5149H12.251L0.921315 32.1838L2.83865 36.8526L14.3053 32.1215L5.54034 40.8989L9.1011 44.4597L17.8785 35.6947L13.1474 47.1614L17.8162 49.0787L22.4851 37.749V50H27.5149V37.749L32.1838 49.0787L36.8526 47.1614L32.1215 35.6947L40.8989 44.4597L44.4597 40.8989L35.6947 32.1215L47.1614 36.8526L49.0787 32.1838L37.749 27.5149H50V22.4851Z" fill="white"/>
</svg>
